<?xml version="1.0" encoding="utf-8"?>
<!-- Generator: Adobe Illustrator 22.1.0, SVG Export Plug-In . SVG Version: 6.00 Build 0)  -->
<svg version="1.1" id="Layer_1" xmlns="http://www.w3.org/2000/svg" xmlns:xlink="http://www.w3.org/1999/xlink" x="0px" y="0px"
	 viewBox="0 0 3501 880" style="enable-background:new 0 0 3501 880;" xml:space="preserve">
<style type="text/css">
	.st0{fill:#00C900;}
	.st1{fill:#00BC00;}
	.st2{fill:#00B700;}
	.st3{fill:none;}
	.st4{fill:#FFFFFF;}
	.st5{fill:#00A600;}
</style>
<g>
	<polygon class="st0" points="91,246.9 91,640.1 431.5,836.7 772,640.1 772,246.9 431.5,50.3 	"/>
</g>
<g>
	<polygon class="st1" points="772.5,246.5 431.5,50.5 91.5,246.5 431.5,441.5 	"/>
</g>
<g>
	<polygon class="st2" points="771.5,640 772,246 431.5,442 431.5,836 	"/>
</g>
<g>
	<polygon class="st0" points="431.5,836 431.5,442 92,246 91.5,640 	"/>
</g>
<g>
	<path class="st3" d="M603.4,488.8c-34.2,0-58.7,22-58.7,54.4c0,32.8,24.5,55.1,58.7,55.1c33.9,0,58.3-22.3,58.3-55.1
		C661.7,510.8,637.2,488.8,603.4,488.8z"/>
	<path class="st4" d="M663.2,452.8v25.6c-15.8-19.1-39.6-27.7-66.6-27.7c-55.1,0-97.2,36.7-97.2,92.6c0,55.8,42.1,93.3,97.2,93.3
		c25.9,0,48.6-8.3,64.5-25.6V621c0,38.9-18.7,58.3-61.2,58.3c-26.6,0-54-9-70.9-23l-20.2,33.9c22,18,57.6,27.4,93.6,27.4
		c67.3,0,103.7-31.7,103.7-101.6V452.8H663.2z M603.4,598.3c-34.2,0-58.7-22.3-58.7-55.1c0-32.4,24.5-54.4,58.7-54.4
		c33.9,0,58.3,22,58.3,54.4C661.7,576,637.2,598.3,603.4,598.3z"/>
</g>
<g>
	<path class="st3" d="M1899.5,321.4c-56.9,0-99.9,41.1-99.9,105.6c0,64.5,43,105.6,99.9,105.6c57.6,0,100.6-41.1,100.6-105.6
		C2000.1,362.5,1957.1,321.4,1899.5,321.4z"/>
	<path class="st3" d="M1516.8,321.4c-56.9,0-99.9,41.1-99.9,105.6c0,64.5,43,105.6,99.9,105.6c57.6,0,100.6-41.1,100.6-105.6
		C1617.4,362.5,1574.4,321.4,1516.8,321.4z"/>
	<path class="st3" d="M1106.3,321.4c-60.1,0-103.1,38.6-103.1,95.5c0,57.6,43,96.8,103.1,96.8c59.5,0,102.5-39.2,102.5-96.8
		C1208.8,360,1165.8,321.4,1106.3,321.4z"/>
	<path class="st3" d="M2640.3,317.6c-51.2,0-88.6,32.9-96.2,82.2h191.7C2729.5,351.1,2692.2,317.6,2640.3,317.6z"/>
	<path class="st5" d="M1211.3,303.1c-27.8-33.5-69.6-48.7-117-48.7c-96.8,0-170.8,64.5-170.8,162.6c0,98.1,74,163.8,170.8,163.8
		c45.5,0,85.4-14.5,113.2-44.9v17.7c0,68.3-32.9,102.5-107.5,102.5c-46.8,0-94.9-15.8-124.6-40.5L939.9,675
		c38.6,31.6,101.2,48.1,164.5,48.1c118.3,0,182.2-55.7,182.2-178.4V258.2h-75.3V303.1z M1106.3,513.7c-60.1,0-103.1-39.2-103.1-96.8
		c0-56.9,43-95.5,103.1-95.5c59.5,0,102.5,38.6,102.5,95.5C1208.8,474.5,1165.8,513.7,1106.3,513.7z"/>
	<path class="st5" d="M1516.8,254.4c-103.7,0-179.7,71.5-179.7,172.7s75.9,173.3,179.7,173.3c105,0,180.3-72.1,180.3-173.3
		S1621.8,254.4,1516.8,254.4z M1516.8,532.7c-56.9,0-99.9-41.1-99.9-105.6c0-64.5,43-105.6,99.9-105.6
		c57.6,0,100.6,41.1,100.6,105.6C1617.4,491.6,1574.4,532.7,1516.8,532.7z"/>
	<path class="st5" d="M1899.5,254.4c-103.7,0-179.7,71.5-179.7,172.7s75.9,173.3,179.7,173.3c105,0,180.3-72.1,180.3-173.3
		S2004.5,254.4,1899.5,254.4z M1899.5,532.7c-56.9,0-99.9-41.1-99.9-105.6c0-64.5,43-105.6,99.9-105.6
		c57.6,0,100.6,41.1,100.6,105.6C2000.1,491.6,1957.1,532.7,1899.5,532.7z"/>
	<polygon class="st5" points="2468.2,258.2 2373.3,258.2 2209.5,410 2209.5,126.6 2130.4,126.6 2130.4,596 2209.5,596 2209.5,506.8 
		2268.3,451.1 2385.4,596 2481.5,596 2327.2,399.9 	"/>
	<path class="st5" d="M2654.2,533.3c-58.8,0-99.9-31.6-109.4-81h265.1c0.6-7.6,1.3-17.1,1.3-23.4c0-105.6-72.1-174.6-170.8-174.6
		c-100.6,0-174.6,72.1-174.6,172.7s73.4,173.3,186.6,173.3c58.2,0,105.6-19,136-55l-42.4-48.7
		C2721.9,521.3,2692.2,533.3,2654.2,533.3z M2640.3,317.6c51.9,0,89.2,33.5,95.5,82.2h-191.7C2551.7,350.5,2589,317.6,2640.3,317.6z
		"/>
	<path class="st5" d="M3095.8,258.2L2988.8,508l-106.3-249.9h-82.2l147.4,339.1l-5.7,13.3c-15.2,33.5-31.6,46.8-59.5,46.8
		c-21.5,0-43-8.9-58.2-23.4l-31.6,58.2c21.5,19.6,56.9,31,90.5,31c56.3,0,99.3-23.4,130.3-99.9l158.1-365H3095.8z"/>
	<path class="st5" d="M3240,356.2c0-22.1,22.8-38,70.8-38c32.3,0,64.5,6.3,96.8,25.3l30.4-60.1c-30.4-18.3-81.6-29.1-126.5-29.1
		c-91.1,0-148.7,41.8-148.7,105.6c0,134.7,208.8,74,208.8,138.5c0,23.4-20.9,37.3-70.8,37.3c-42.4,0-87.9-13.9-117.7-33.5
		l-30.4,60.1c30.4,21.5,86.7,38,143,38c94.9,0,153.1-41.1,153.1-104.4C3448.7,363.8,3240,424.5,3240,356.2z"/>
</g>
</svg>
